<?xml version="1.0" encoding="UTF-8"?>
<svg xmlns="http://www.w3.org/2000/svg" xmlns:xlink="http://www.w3.org/1999/xlink" width="4pt" height="4pt" viewBox="0 0 4 4" version="1.1">
<g id="surface1">
<path style=" stroke:none;fill-rule:nonzero;fill:rgb(68.627451%,68.627451%,68.627451%);fill-opacity:1;" d="M 1.441406 2.796875 L 0.640625 2.796875 C 0.484375 2.796875 0.359375 2.699219 0.359375 2.570312 L 0.359375 0.519531 C 0.359375 0.394531 0.484375 0.296875 0.640625 0.296875 L 2.582031 0.296875 C 2.738281 0.296875 2.863281 0.394531 2.863281 0.519531 L 2.863281 2.238281 L 3.222656 1.886719 L 3.222656 0.300781 C 3.222656 0.136719 3.0625 0 2.859375 0 L 0.347656 0 C 0.15625 0 0 0.128906 0 0.289062 L 0 2.796875 C 0 2.964844 0.160156 3.101562 0.363281 3.101562 L 1.773438 3.101562 L 1.605469 2.980469 C 1.535156 2.929688 1.480469 2.863281 1.441406 2.796875 Z M 1.441406 2.796875 "/>
<path style=" stroke:none;fill-rule:nonzero;fill:rgb(68.627451%,68.627451%,68.627451%);fill-opacity:1;" d="M 2.433594 0.675781 L 0.820312 0.675781 C 0.722656 0.675781 0.640625 0.742188 0.640625 0.824219 C 0.640625 0.902344 0.722656 0.96875 0.820312 0.96875 L 2.433594 0.96875 C 2.53125 0.96875 2.613281 0.902344 2.613281 0.824219 C 2.613281 0.742188 2.53125 0.675781 2.433594 0.675781 Z M 2.433594 0.675781 "/>
<path style=" stroke:none;fill-rule:nonzero;fill:rgb(68.627451%,68.627451%,68.627451%);fill-opacity:1;" d="M 2.433594 1.167969 L 0.820312 1.167969 C 0.722656 1.167969 0.640625 1.234375 0.640625 1.316406 C 0.640625 1.394531 0.722656 1.460938 0.820312 1.460938 L 2.433594 1.460938 C 2.53125 1.460938 2.613281 1.394531 2.613281 1.316406 C 2.613281 1.234375 2.53125 1.167969 2.433594 1.167969 Z M 2.433594 1.167969 "/>
<path style=" stroke:none;fill-rule:nonzero;fill:rgb(68.627451%,68.627451%,68.627451%);fill-opacity:1;" d="M 2.433594 1.660156 L 0.820312 1.660156 C 0.722656 1.660156 0.640625 1.722656 0.640625 1.804688 C 0.640625 1.886719 0.722656 1.949219 0.820312 1.949219 L 2.433594 1.949219 C 2.53125 1.949219 2.613281 1.886719 2.613281 1.804688 C 2.613281 1.722656 2.53125 1.660156 2.433594 1.660156 Z M 2.433594 1.660156 "/>
<path style=" stroke:none;fill-rule:nonzero;fill:rgb(68.627451%,68.627451%,68.627451%);fill-opacity:1;" d="M 0.640625 2.273438 C 0.640625 2.355469 0.722656 2.417969 0.820312 2.417969 L 1.421875 2.417969 C 1.449219 2.363281 1.488281 2.304688 1.539062 2.25 C 1.59375 2.199219 1.660156 2.160156 1.730469 2.128906 L 0.820312 2.128906 C 0.722656 2.128906 0.640625 2.191406 0.640625 2.273438 Z M 0.640625 2.273438 "/>
<path style=" stroke:none;fill-rule:nonzero;fill:rgb(68.627451%,68.627451%,68.627451%);fill-opacity:1;" d="M 2.433594 2.128906 L 2.300781 2.128906 C 2.34375 2.144531 2.386719 2.171875 2.425781 2.199219 L 2.601562 2.324219 C 2.609375 2.308594 2.613281 2.292969 2.613281 2.273438 C 2.613281 2.195312 2.53125 2.128906 2.433594 2.128906 Z M 2.433594 2.128906 "/>
<path style="fill-rule:nonzero;fill:rgb(68.627451%,68.627451%,68.627451%);fill-opacity:1;stroke-width:1;stroke-linecap:butt;stroke-linejoin:miter;stroke:rgb(68.627451%,68.627451%,68.627451%);stroke-opacity:1;stroke-miterlimit:4;" d="M 12.960938 8.549805 C 12.673828 8.367188 12.277344 8.416992 12.072266 8.682617 L 7.054688 15.057617 C 6.835938 15.323242 6.904297 15.688477 7.191406 15.887695 C 7.300781 15.970703 7.4375 16.003906 7.560547 16.003906 C 7.751953 16.003906 7.957031 15.920898 8.080078 15.754883 L 13.097656 9.379883 C 13.302734 9.114258 13.248047 8.749023 12.960938 8.549805 Z M 12.960938 8.549805 " transform="matrix(0.285714,0,0,0.235294,0,0)"/>
<path style=" stroke:none;fill-rule:nonzero;fill:rgb(68.627451%,68.627451%,68.627451%);fill-opacity:1;" d="M 2.160156 2.875 C 2.355469 2.875 2.519531 2.742188 2.519531 2.578125 C 2.519531 2.417969 2.355469 2.28125 2.160156 2.28125 C 1.960938 2.28125 1.800781 2.417969 1.800781 2.578125 C 1.800781 2.742188 1.960938 2.875 2.160156 2.875 Z M 2.160156 2.875 "/>
<path style=" stroke:none;fill-rule:nonzero;fill:rgb(68.627451%,68.627451%,68.627451%);fill-opacity:1;" d="M 3.238281 3.765625 C 3.4375 3.765625 3.597656 3.632812 3.597656 3.46875 C 3.597656 3.304688 3.4375 3.171875 3.238281 3.171875 C 3.039062 3.171875 2.878906 3.304688 2.878906 3.46875 C 2.878906 3.632812 3.039062 3.765625 3.238281 3.765625 Z M 3.238281 3.765625 "/>
</g>
</svg>
