<svg width="16" height="16" viewBox="0 0 16 16" fill="none" xmlns="http://www.w3.org/2000/svg">
<path d="M3.6499 6.5H9.8999C10.0379 6.5 10.1499 6.388 10.1499 6.25C10.1499 6.112 10.0379 6 9.8999 6H3.6499C3.5119 6 3.3999 6.112 3.3999 6.25C3.3999 6.388 3.5119 6.5 3.6499 6.5Z" fill="#AFAFAF" stroke="#AFAFAF" stroke-width="0.5"/>
<path d="M3.6499 4.5H6.1499C6.2879 4.5 6.3999 4.388 6.3999 4.25C6.3999 4.112 6.2879 4 6.1499 4H3.6499C3.5119 4 3.3999 4.112 3.3999 4.25C3.3999 4.388 3.5119 4.5 3.6499 4.5Z" fill="#AFAFAF" stroke="#AFAFAF" stroke-width="0.5"/>
<path d="M3.6499 8.5H9.8999C10.0379 8.5 10.1499 8.388 10.1499 8.25C10.1499 8.112 10.0379 8 9.8999 8H3.6499C3.5119 8 3.3999 8.112 3.3999 8.25C3.3999 8.388 3.5119 8.5 3.6499 8.5Z" fill="#AFAFAF" stroke="#AFAFAF" stroke-width="0.5"/>
<path d="M7.8999 10H3.6499C3.5119 10 3.3999 10.112 3.3999 10.25C3.3999 10.388 3.5119 10.5 3.6499 10.5H7.8999C8.0379 10.5 8.1499 10.388 8.1499 10.25C8.1499 10.112 8.0379 10 7.8999 10Z" fill="#AFAFAF" stroke="#AFAFAF" stroke-width="0.5"/>
<path d="M7.1499 12H3.6499C3.5119 12 3.3999 12.112 3.3999 12.25C3.3999 12.388 3.5119 12.5 3.6499 12.5H7.1499C7.2879 12.5 7.3999 12.388 7.3999 12.25C7.3999 12.112 7.2879 12 7.1499 12Z" fill="#AFAFAF" stroke="#AFAFAF" stroke-width="0.5"/>
<path d="M12.6499 9.09075V4.1465L9.0034 0.5H0.899902V15.5H11.8999C13.6919 15.5 15.1499 14.042 15.1499 12.25C15.1499 10.7165 14.0809 9.43075 12.6499 9.09075ZM9.1499 1.3535L11.7964 4H9.1499V1.3535ZM10.1694 15H1.3999V1H8.6499V4.5H12.1499V9.011C12.0644 9.00375 11.9814 9 11.8999 9C10.1079 9 8.6499 10.458 8.6499 12.25C8.6499 12.3497 8.65615 12.448 8.6649 12.5457C8.6669 12.5685 8.66915 12.591 8.67165 12.6138C8.6824 12.7093 8.69615 12.8038 8.7149 12.8965C8.71715 12.9075 8.72015 12.9183 8.7224 12.9292C8.7404 13.0138 8.76215 13.0968 8.78665 13.1788C8.7929 13.1993 8.79865 13.22 8.80515 13.2402C8.8334 13.3282 8.8649 13.4148 8.90015 13.4995C8.9069 13.5155 8.9144 13.531 8.92115 13.5468C8.9534 13.6208 8.9884 13.693 9.0259 13.764C9.0349 13.781 9.0434 13.7983 9.05265 13.8153C9.0964 13.8945 9.1434 13.9718 9.19365 14.047C9.20515 14.0642 9.21715 14.0807 9.2289 14.0977C9.27465 14.1637 9.32265 14.228 9.3729 14.2902C9.3824 14.302 9.3914 14.3142 9.40115 14.326C9.4589 14.3955 9.51991 14.462 9.58315 14.5262C9.59865 14.542 9.6144 14.5573 9.6304 14.5728C9.69165 14.6325 9.7544 14.6905 9.82015 14.7452C9.8259 14.7502 9.8314 14.7555 9.8374 14.7603C9.9079 14.8182 9.98166 14.8725 10.0572 14.9248C10.0754 14.9375 10.0939 14.9497 10.1124 14.962C10.1317 14.9742 10.1502 14.9878 10.1694 15ZM11.8999 15C10.3837 15 9.1499 13.7662 9.1499 12.25C9.1499 10.7338 10.3837 9.5 11.8999 9.5C11.9779 9.5 12.0549 9.50525 12.1314 9.51175C12.2042 9.51875 12.2794 9.52825 12.3587 9.5415L12.4694 9.56C13.7132 9.82325 14.6499 10.929 14.6499 12.25C14.6499 13.7662 13.4162 15 11.8999 15Z" fill="#AFAFAF" stroke="#AFAFAF" stroke-width="0.5"/>
<path fill-rule="evenodd" clip-rule="evenodd" d="M12 10L11.65 10.35L13.05 11.75H10V12.25H13.05L11.65 13.65L12 14L14 12L12 10Z" fill="#AFAFAF"/>
</svg>
