<?xml version="1.0" encoding="UTF-8"?>
<svg xmlns="http://www.w3.org/2000/svg" xmlns:xlink="http://www.w3.org/1999/xlink" width="4pt" height="4pt" viewBox="0 0 4 4" version="1.1">
<g id="surface1">
<path style=" stroke:none;fill-rule:nonzero;fill:rgb(68.627451%,68.627451%,68.627451%);fill-opacity:1;" d="M 1.335938 3.246094 L 0.59375 3.246094 C 0.449219 3.246094 0.332031 3.132812 0.332031 2.992188 L 0.332031 0.683594 C 0.332031 0.542969 0.449219 0.429688 0.59375 0.429688 L 2.394531 0.429688 C 2.535156 0.429688 2.652344 0.542969 2.652344 0.683594 L 2.652344 2.617188 L 2.984375 2.222656 L 2.984375 0.4375 C 2.984375 0.25 2.835938 0.0976562 2.648438 0.0976562 L 0.324219 0.0976562 C 0.144531 0.0976562 0 0.242188 0 0.421875 L 0 3.246094 C 0 3.433594 0.148438 3.585938 0.335938 3.585938 L 1.644531 3.585938 L 1.488281 3.453125 C 1.421875 3.394531 1.371094 3.320312 1.335938 3.246094 Z M 1.335938 3.246094 "/>
<path style=" stroke:none;fill-rule:nonzero;fill:rgb(68.627451%,68.627451%,68.627451%);fill-opacity:1;" d="M 2.253906 0.855469 L 0.761719 0.855469 C 0.667969 0.855469 0.59375 0.929688 0.59375 1.023438 C 0.59375 1.113281 0.667969 1.1875 0.761719 1.1875 L 2.253906 1.1875 C 2.347656 1.1875 2.421875 1.113281 2.421875 1.023438 C 2.421875 0.933594 2.347656 0.855469 2.253906 0.855469 Z M 2.253906 0.855469 "/>
<path style=" stroke:none;fill-rule:nonzero;fill:rgb(68.627451%,68.627451%,68.627451%);fill-opacity:1;" d="M 2.253906 1.410156 L 0.761719 1.410156 C 0.667969 1.410156 0.59375 1.484375 0.59375 1.578125 C 0.59375 1.667969 0.667969 1.742188 0.761719 1.742188 L 2.253906 1.742188 C 2.347656 1.742188 2.421875 1.667969 2.421875 1.578125 C 2.421875 1.484375 2.347656 1.410156 2.253906 1.410156 Z M 2.253906 1.410156 "/>
<path style=" stroke:none;fill-rule:nonzero;fill:rgb(68.627451%,68.627451%,68.627451%);fill-opacity:1;" d="M 2.253906 1.964844 L 0.761719 1.964844 C 0.667969 1.964844 0.59375 2.035156 0.59375 2.128906 C 0.59375 2.21875 0.667969 2.289062 0.761719 2.289062 L 2.253906 2.289062 C 2.347656 2.289062 2.421875 2.21875 2.421875 2.128906 C 2.421875 2.035156 2.347656 1.964844 2.253906 1.964844 Z M 2.253906 1.964844 "/>
<path style=" stroke:none;fill-rule:nonzero;fill:rgb(68.627451%,68.627451%,68.627451%);fill-opacity:1;" d="M 0.59375 2.65625 C 0.59375 2.746094 0.667969 2.816406 0.761719 2.816406 L 1.316406 2.816406 C 1.339844 2.757812 1.378906 2.6875 1.425781 2.632812 C 1.476562 2.570312 1.539062 2.527344 1.605469 2.492188 L 0.761719 2.492188 C 0.667969 2.492188 0.59375 2.566406 0.59375 2.65625 Z M 0.59375 2.65625 "/>
<path style=" stroke:none;fill-rule:nonzero;fill:rgb(68.627451%,68.627451%,68.627451%);fill-opacity:1;" d="M 2.253906 2.492188 L 2.128906 2.492188 C 2.171875 2.511719 2.210938 2.539062 2.246094 2.570312 L 2.410156 2.710938 C 2.417969 2.695312 2.421875 2.675781 2.421875 2.65625 C 2.421875 2.566406 2.347656 2.492188 2.253906 2.492188 Z M 2.253906 2.492188 "/>
<path style=" stroke:none;fill-rule:nonzero;fill:rgb(68.627451%,68.627451%,68.627451%);fill-opacity:1;" d="M 3.898438 2.050781 C 3.777344 1.945312 3.59375 1.960938 3.488281 2.082031 L 2.535156 3.203125 L 2.058594 2.792969 C 1.933594 2.6875 1.75 2.699219 1.648438 2.824219 C 1.542969 2.945312 1.558594 3.128906 1.679688 3.230469 L 2.375 3.832031 C 2.429688 3.875 2.496094 3.902344 2.566406 3.902344 C 2.574219 3.902344 2.582031 3.902344 2.589844 3.902344 C 2.664062 3.894531 2.738281 3.859375 2.785156 3.800781 L 3.929688 2.460938 C 4.035156 2.335938 4.019531 2.152344 3.898438 2.050781 Z M 3.898438 2.050781 "/>
</g>
</svg>
