<?xml version="1.0" encoding="UTF-8"?>
<svg xmlns="http://www.w3.org/2000/svg" xmlns:xlink="http://www.w3.org/1999/xlink" width="6pt" height="6pt" viewBox="0 0 6 6" version="1.1">
<g id="surface1">
<path style=" stroke:none;fill-rule:nonzero;fill:rgb(68.627451%,68.627451%,68.627451%);fill-opacity:1;" d="M 3.308594 0.230469 C 3.265625 0.195312 3.207031 0.179688 3.152344 0.191406 L 0.152344 0.753906 C 0.0625 0.769531 0 0.847656 0 0.9375 L 0 5.0625 C 0 5.152344 0.0625 5.230469 0.152344 5.246094 L 3.152344 5.808594 C 3.164062 5.8125 3.175781 5.8125 3.1875 5.8125 C 3.230469 5.8125 3.273438 5.796875 3.308594 5.769531 C 3.351562 5.734375 3.375 5.679688 3.375 5.625 L 3.375 0.375 C 3.375 0.320312 3.351562 0.265625 3.308594 0.230469 Z M 3 5.398438 L 0.375 4.90625 L 0.375 1.09375 L 3 0.601562 Z M 3 5.398438 "/>
<path style=" stroke:none;fill-rule:nonzero;fill:rgb(68.627451%,68.627451%,68.627451%);fill-opacity:1;" d="M 5.8125 0.9375 L 3.1875 0.9375 C 3.085938 0.9375 3 1.019531 3 1.125 C 3 1.226562 3.085938 1.3125 3.1875 1.3125 L 5.625 1.3125 L 5.625 4.6875 L 3.1875 4.6875 C 3.085938 4.6875 3 4.769531 3 4.875 C 3 4.976562 3.085938 5.0625 3.1875 5.0625 L 5.8125 5.0625 C 5.914062 5.0625 6 4.976562 6 4.875 L 6 1.125 C 6 1.019531 5.914062 0.9375 5.8125 0.9375 Z M 5.8125 0.9375 "/>
<path style=" stroke:none;fill-rule:nonzero;fill:rgb(68.627451%,68.627451%,68.627451%);fill-opacity:1;" d="M 3.9375 1.6875 L 3.1875 1.6875 C 3.085938 1.6875 3 1.769531 3 1.875 C 3 1.976562 3.085938 2.0625 3.1875 2.0625 L 3.9375 2.0625 C 4.039062 2.0625 4.125 1.976562 4.125 1.875 C 4.125 1.769531 4.039062 1.6875 3.9375 1.6875 Z M 3.9375 1.6875 "/>
<path style=" stroke:none;fill-rule:nonzero;fill:rgb(68.627451%,68.627451%,68.627451%);fill-opacity:1;" d="M 3.9375 2.4375 L 3.1875 2.4375 C 3.085938 2.4375 3 2.519531 3 2.625 C 3 2.726562 3.085938 2.8125 3.1875 2.8125 L 3.9375 2.8125 C 4.039062 2.8125 4.125 2.726562 4.125 2.625 C 4.125 2.519531 4.039062 2.4375 3.9375 2.4375 Z M 3.9375 2.4375 "/>
<path style=" stroke:none;fill-rule:nonzero;fill:rgb(68.627451%,68.627451%,68.627451%);fill-opacity:1;" d="M 3.9375 3.1875 L 3.1875 3.1875 C 3.085938 3.1875 3 3.269531 3 3.375 C 3 3.476562 3.085938 3.5625 3.1875 3.5625 L 3.9375 3.5625 C 4.039062 3.5625 4.125 3.476562 4.125 3.375 C 4.125 3.269531 4.039062 3.1875 3.9375 3.1875 Z M 3.9375 3.1875 "/>
<path style=" stroke:none;fill-rule:nonzero;fill:rgb(68.627451%,68.627451%,68.627451%);fill-opacity:1;" d="M 3.9375 3.9375 L 3.1875 3.9375 C 3.085938 3.9375 3 4.019531 3 4.125 C 3 4.226562 3.085938 4.3125 3.1875 4.3125 L 3.9375 4.3125 C 4.039062 4.3125 4.125 4.226562 4.125 4.125 C 4.125 4.019531 4.039062 3.9375 3.9375 3.9375 Z M 3.9375 3.9375 "/>
<path style=" stroke:none;fill-rule:nonzero;fill:rgb(68.627451%,68.627451%,68.627451%);fill-opacity:1;" d="M 5.0625 1.6875 L 4.6875 1.6875 C 4.585938 1.6875 4.5 1.769531 4.5 1.875 C 4.5 1.976562 4.585938 2.0625 4.6875 2.0625 L 5.0625 2.0625 C 5.164062 2.0625 5.25 1.976562 5.25 1.875 C 5.25 1.769531 5.164062 1.6875 5.0625 1.6875 Z M 5.0625 1.6875 "/>
<path style=" stroke:none;fill-rule:nonzero;fill:rgb(68.627451%,68.627451%,68.627451%);fill-opacity:1;" d="M 5.0625 2.4375 L 4.6875 2.4375 C 4.585938 2.4375 4.5 2.519531 4.5 2.625 C 4.5 2.726562 4.585938 2.8125 4.6875 2.8125 L 5.0625 2.8125 C 5.164062 2.8125 5.25 2.726562 5.25 2.625 C 5.25 2.519531 5.164062 2.4375 5.0625 2.4375 Z M 5.0625 2.4375 "/>
<path style=" stroke:none;fill-rule:nonzero;fill:rgb(68.627451%,68.627451%,68.627451%);fill-opacity:1;" d="M 5.0625 3.1875 L 4.6875 3.1875 C 4.585938 3.1875 4.5 3.269531 4.5 3.375 C 4.5 3.476562 4.585938 3.5625 4.6875 3.5625 L 5.0625 3.5625 C 5.164062 3.5625 5.25 3.476562 5.25 3.375 C 5.25 3.269531 5.164062 3.1875 5.0625 3.1875 Z M 5.0625 3.1875 "/>
<path style=" stroke:none;fill-rule:nonzero;fill:rgb(68.627451%,68.627451%,68.627451%);fill-opacity:1;" d="M 5.0625 3.9375 L 4.6875 3.9375 C 4.585938 3.9375 4.5 4.019531 4.5 4.125 C 4.5 4.226562 4.585938 4.3125 4.6875 4.3125 L 5.0625 4.3125 C 5.164062 4.3125 5.25 4.226562 5.25 4.125 C 5.25 4.019531 5.164062 3.9375 5.0625 3.9375 Z M 5.0625 3.9375 "/>
<path style=" stroke:none;fill-rule:nonzero;fill:rgb(68.627451%,68.627451%,68.627451%);fill-opacity:1;" d="M 2.578125 3.625 L 1.265625 2.125 C 1.199219 2.046875 1.078125 2.039062 1 2.109375 C 0.921875 2.175781 0.914062 2.296875 0.984375 2.375 L 2.296875 3.875 C 2.332031 3.914062 2.386719 3.9375 2.4375 3.9375 C 2.480469 3.9375 2.523438 3.921875 2.5625 3.890625 C 2.640625 3.824219 2.648438 3.703125 2.578125 3.625 Z M 2.578125 3.625 "/>
<path style=" stroke:none;fill-rule:nonzero;fill:rgb(68.627451%,68.627451%,68.627451%);fill-opacity:1;" d="M 2.550781 1.914062 C 2.472656 1.851562 2.351562 1.867188 2.289062 1.945312 L 0.976562 3.632812 C 0.914062 3.714844 0.929688 3.835938 1.011719 3.898438 C 1.042969 3.925781 1.085938 3.9375 1.125 3.9375 C 1.179688 3.9375 1.234375 3.914062 1.273438 3.867188 L 2.585938 2.179688 C 2.648438 2.097656 2.632812 1.976562 2.550781 1.914062 Z M 2.550781 1.914062 "/>
</g>
</svg>
