<?xml version="1.0" encoding="UTF-8"?>
<svg xmlns="http://www.w3.org/2000/svg" xmlns:xlink="http://www.w3.org/1999/xlink" width="4pt" height="4pt" viewBox="0 0 4 4" version="1.1">
<g id="surface1">
<path style=" stroke:none;fill-rule:nonzero;fill:rgb(20%,32.941176%,50.980392%);fill-opacity:1;" d="M 2.203125 0.152344 C 2.175781 0.128906 2.136719 0.121094 2.101562 0.128906 L 0.101562 0.503906 C 0.0429688 0.511719 0 0.566406 0 0.625 L 0 3.375 C 0 3.433594 0.0429688 3.488281 0.101562 3.496094 L 2.101562 3.871094 C 2.109375 3.875 2.117188 3.875 2.125 3.875 C 2.152344 3.875 2.183594 3.863281 2.203125 3.847656 C 2.234375 3.824219 2.25 3.785156 2.25 3.75 L 2.25 0.25 C 2.25 0.210938 2.234375 0.175781 2.203125 0.152344 Z M 2 3.597656 L 0.25 3.269531 L 0.25 0.730469 L 2 0.402344 Z M 2 3.597656 "/>
<path style=" stroke:none;fill-rule:nonzero;fill:rgb(20%,32.941176%,50.980392%);fill-opacity:1;" d="M 3.875 0.625 L 2.125 0.625 C 2.054688 0.625 2 0.679688 2 0.75 C 2 0.820312 2.054688 0.875 2.125 0.875 L 3.75 0.875 L 3.75 3.125 L 2.125 3.125 C 2.054688 3.125 2 3.179688 2 3.25 C 2 3.320312 2.054688 3.375 2.125 3.375 L 3.875 3.375 C 3.945312 3.375 4 3.320312 4 3.25 L 4 0.75 C 4 0.679688 3.945312 0.625 3.875 0.625 Z M 3.875 0.625 "/>
<path style=" stroke:none;fill-rule:nonzero;fill:rgb(20%,32.941176%,50.980392%);fill-opacity:1;" d="M 2.625 1.125 L 2.125 1.125 C 2.054688 1.125 2 1.179688 2 1.25 C 2 1.320312 2.054688 1.375 2.125 1.375 L 2.625 1.375 C 2.695312 1.375 2.75 1.320312 2.75 1.25 C 2.75 1.179688 2.695312 1.125 2.625 1.125 Z M 2.625 1.125 "/>
<path style=" stroke:none;fill-rule:nonzero;fill:rgb(20%,32.941176%,50.980392%);fill-opacity:1;" d="M 2.625 1.625 L 2.125 1.625 C 2.054688 1.625 2 1.679688 2 1.75 C 2 1.820312 2.054688 1.875 2.125 1.875 L 2.625 1.875 C 2.695312 1.875 2.75 1.820312 2.75 1.75 C 2.75 1.679688 2.695312 1.625 2.625 1.625 Z M 2.625 1.625 "/>
<path style=" stroke:none;fill-rule:nonzero;fill:rgb(20%,32.941176%,50.980392%);fill-opacity:1;" d="M 2.625 2.125 L 2.125 2.125 C 2.054688 2.125 2 2.179688 2 2.25 C 2 2.320312 2.054688 2.375 2.125 2.375 L 2.625 2.375 C 2.695312 2.375 2.75 2.320312 2.75 2.25 C 2.75 2.179688 2.695312 2.125 2.625 2.125 Z M 2.625 2.125 "/>
<path style=" stroke:none;fill-rule:nonzero;fill:rgb(20%,32.941176%,50.980392%);fill-opacity:1;" d="M 2.625 2.625 L 2.125 2.625 C 2.054688 2.625 2 2.679688 2 2.75 C 2 2.820312 2.054688 2.875 2.125 2.875 L 2.625 2.875 C 2.695312 2.875 2.75 2.820312 2.75 2.75 C 2.75 2.679688 2.695312 2.625 2.625 2.625 Z M 2.625 2.625 "/>
<path style=" stroke:none;fill-rule:nonzero;fill:rgb(20%,32.941176%,50.980392%);fill-opacity:1;" d="M 3.375 1.125 L 3.125 1.125 C 3.054688 1.125 3 1.179688 3 1.25 C 3 1.320312 3.054688 1.375 3.125 1.375 L 3.375 1.375 C 3.445312 1.375 3.5 1.320312 3.5 1.25 C 3.5 1.179688 3.445312 1.125 3.375 1.125 Z M 3.375 1.125 "/>
<path style=" stroke:none;fill-rule:nonzero;fill:rgb(20%,32.941176%,50.980392%);fill-opacity:1;" d="M 3.375 1.625 L 3.125 1.625 C 3.054688 1.625 3 1.679688 3 1.75 C 3 1.820312 3.054688 1.875 3.125 1.875 L 3.375 1.875 C 3.445312 1.875 3.5 1.820312 3.5 1.75 C 3.5 1.679688 3.445312 1.625 3.375 1.625 Z M 3.375 1.625 "/>
<path style=" stroke:none;fill-rule:nonzero;fill:rgb(20%,32.941176%,50.980392%);fill-opacity:1;" d="M 3.375 2.125 L 3.125 2.125 C 3.054688 2.125 3 2.179688 3 2.25 C 3 2.320312 3.054688 2.375 3.125 2.375 L 3.375 2.375 C 3.445312 2.375 3.5 2.320312 3.5 2.25 C 3.5 2.179688 3.445312 2.125 3.375 2.125 Z M 3.375 2.125 "/>
<path style=" stroke:none;fill-rule:nonzero;fill:rgb(20%,32.941176%,50.980392%);fill-opacity:1;" d="M 3.375 2.625 L 3.125 2.625 C 3.054688 2.625 3 2.679688 3 2.75 C 3 2.820312 3.054688 2.875 3.125 2.875 L 3.375 2.875 C 3.445312 2.875 3.5 2.820312 3.5 2.75 C 3.5 2.679688 3.445312 2.625 3.375 2.625 Z M 3.375 2.625 "/>
<path style=" stroke:none;fill-rule:nonzero;fill:rgb(30.980392%,51.372549%,80%);fill-opacity:1;" d="M 1.71875 2.417969 L 0.84375 1.417969 C 0.796875 1.367188 0.71875 1.359375 0.667969 1.40625 C 0.617188 1.453125 0.609375 1.53125 0.65625 1.582031 L 1.53125 2.582031 C 1.554688 2.609375 1.589844 2.625 1.625 2.625 C 1.652344 2.625 1.683594 2.613281 1.707031 2.59375 C 1.757812 2.546875 1.765625 2.46875 1.71875 2.417969 Z M 1.71875 2.417969 "/>
<path style=" stroke:none;fill-rule:nonzero;fill:rgb(30.980392%,51.372549%,80%);fill-opacity:1;" d="M 1.703125 1.277344 C 1.648438 1.234375 1.570312 1.242188 1.527344 1.296875 L 0.652344 2.421875 C 0.609375 2.476562 0.617188 2.554688 0.671875 2.597656 C 0.695312 2.617188 0.722656 2.625 0.75 2.625 C 0.785156 2.625 0.824219 2.609375 0.847656 2.578125 L 1.722656 1.453125 C 1.765625 1.398438 1.757812 1.320312 1.703125 1.277344 Z M 1.703125 1.277344 "/>
</g>
</svg>
