<?xml version="1.0" encoding="UTF-8"?>
<svg xmlns="http://www.w3.org/2000/svg" xmlns:xlink="http://www.w3.org/1999/xlink" width="4pt" height="4pt" viewBox="0 0 4 4" version="1.1">
<g id="surface1">
<path style=" stroke:none;fill-rule:nonzero;fill:rgb(20%,32.941176%,50.980392%);fill-opacity:1;" d="M 1.367188 0.703125 L 2.460938 0.703125 C 2.527344 0.703125 2.578125 0.652344 2.578125 0.585938 C 2.578125 0.519531 2.527344 0.46875 2.460938 0.46875 L 1.367188 0.46875 C 1.300781 0.46875 1.25 0.519531 1.25 0.585938 C 1.25 0.652344 1.300781 0.703125 1.367188 0.703125 Z M 1.367188 0.703125 "/>
<path style=" stroke:none;fill-rule:nonzero;fill:rgb(20%,32.941176%,50.980392%);fill-opacity:1;" d="M 1.367188 1.171875 L 2.460938 1.171875 C 2.527344 1.171875 2.578125 1.121094 2.578125 1.054688 C 2.578125 0.988281 2.527344 0.9375 2.460938 0.9375 L 1.367188 0.9375 C 1.300781 0.9375 1.25 0.988281 1.25 1.054688 C 1.25 1.121094 1.300781 1.171875 1.367188 1.171875 Z M 1.367188 1.171875 "/>
<path style=" stroke:none;fill-rule:nonzero;fill:rgb(20%,32.941176%,50.980392%);fill-opacity:1;" d="M 1.523438 2.96875 L 0.585938 2.96875 C 0.519531 2.96875 0.46875 3.019531 0.46875 3.085938 C 0.46875 3.152344 0.519531 3.203125 0.585938 3.203125 L 1.523438 3.203125 C 1.589844 3.203125 1.640625 3.152344 1.640625 3.085938 C 1.640625 3.019531 1.589844 2.96875 1.523438 2.96875 Z M 1.523438 2.96875 "/>
<path style=" stroke:none;fill-rule:nonzero;fill:rgb(20%,32.941176%,50.980392%);fill-opacity:1;" d="M 3.898438 3.398438 L 3.140625 2.644531 C 3.183594 2.539062 3.207031 2.425781 3.207031 2.308594 C 3.207031 2.117188 3.148438 1.941406 3.046875 1.796875 L 3.046875 0.351562 C 3.046875 0.15625 2.890625 0 2.695312 0 L 0.898438 0 C 0.867188 0 0.835938 0.0117188 0.816406 0.0351562 L 0.0351562 0.816406 C 0.0117188 0.835938 0 0.867188 0 0.898438 L 0 3.648438 C 0 3.84375 0.15625 4 0.351562 4 L 2.695312 4 C 2.890625 4 3.046875 3.84375 3.046875 3.648438 L 3.046875 3.542969 L 3.398438 3.898438 C 3.464844 3.964844 3.554688 4 3.648438 4 C 3.742188 4 3.832031 3.964844 3.898438 3.898438 C 3.964844 3.832031 4 3.742188 4 3.648438 C 4 3.554688 3.964844 3.464844 3.898438 3.398438 Z M 2.308594 2.972656 C 1.941406 2.972656 1.644531 2.671875 1.644531 2.308594 C 1.644531 1.941406 1.941406 1.644531 2.308594 1.644531 C 2.671875 1.644531 2.972656 1.941406 2.972656 2.308594 C 2.972656 2.671875 2.671875 2.972656 2.308594 2.972656 Z M 1.453125 2.03125 L 0.703125 2.03125 L 0.703125 1.640625 L 1.703125 1.640625 C 1.589844 1.746094 1.5 1.878906 1.453125 2.03125 Z M 0.78125 0.398438 L 0.78125 0.78125 L 0.398438 0.78125 Z M 2.8125 3.648438 C 2.8125 3.714844 2.761719 3.765625 2.695312 3.765625 L 0.351562 3.765625 C 0.285156 3.765625 0.234375 3.714844 0.234375 3.648438 L 0.234375 1.015625 L 0.898438 1.015625 C 0.964844 1.015625 1.015625 0.964844 1.015625 0.898438 L 1.015625 0.234375 L 2.695312 0.234375 C 2.761719 0.234375 2.8125 0.285156 2.8125 0.351562 L 2.8125 1.566406 C 2.667969 1.464844 2.496094 1.40625 2.308594 1.40625 L 0.585938 1.40625 C 0.519531 1.40625 0.46875 1.457031 0.46875 1.523438 L 0.46875 2.148438 C 0.46875 2.214844 0.519531 2.265625 0.585938 2.265625 L 1.410156 2.265625 C 1.410156 2.28125 1.410156 2.292969 1.410156 2.308594 C 1.410156 2.375 1.414062 2.4375 1.429688 2.5 L 0.585938 2.5 C 0.519531 2.5 0.46875 2.550781 0.46875 2.617188 C 0.46875 2.683594 0.519531 2.734375 0.585938 2.734375 L 1.515625 2.734375 C 1.667969 3.015625 1.964844 3.207031 2.308594 3.207031 C 2.425781 3.207031 2.539062 3.183594 2.644531 3.140625 L 2.8125 3.308594 Z M 3.730469 3.730469 C 3.710938 3.753906 3.679688 3.765625 3.648438 3.765625 C 3.617188 3.765625 3.585938 3.753906 3.566406 3.730469 L 2.855469 3.019531 C 2.914062 2.972656 2.972656 2.914062 3.019531 2.855469 L 3.730469 3.566406 C 3.753906 3.585938 3.765625 3.617188 3.765625 3.648438 C 3.765625 3.679688 3.753906 3.710938 3.730469 3.730469 Z M 3.730469 3.730469 "/>
</g>
</svg>
